# xmcd
# 
# Track frame offsets:
#     150
#     17700
#     34102
#     57500
#     99525
#     116905
#     136590
#     152117
#     172425
#     206962
#     235175
#     253230
#     270735
# 
# Disc length: 3894
# 
# Revision: 8
# Processed by: cddbd v1.5.2PL0 Copyright (c) Steve Scherf et al.
# Submitted via: fre:ac v1.0.27
# 
DISCID=c30f340d
DTITLE=Cheap Trick - Dream Police
DYEAR=1979
DGENRE=Rock
TTITLE0=Dream Police
TTITLE1=Way Of The World
TTITLE2=The House Is Rockin' (With Domestic Problems)
TTITLE3=Gonna Raise Hell
TTITLE4=I'll Be With You Tonight
TTITLE5=Voices
TTITLE6=Writing On The Wall
TTITLE7=I Know What I Want
TTITLE8=Need Your Love
TTITLE9=The House Is Rockin' (With Domestic Problems) [Live]
TTITLE10=Way Of The World [Live]
TTITLE11=Dream Police [No Strings Version]
TTITLE12=I Know What I Want [Live]
EXTD=
EXTT0=
EXTT1=
EXTT2=
EXTT3=
EXTT4=
EXTT5=
EXTT6=
EXTT7=
EXTT8=
EXTT9=
EXTT10=
EXTT11=
EXTT12=
PLAYORDER=
